<svg width="36" height="36" viewBox="0 0 386 386" fill="none" xmlns="http://www.w3.org/2000/svg">
<path d="M313.391 0H71.6902C32.0968 0 0 32.0968 0 71.6902V313.391C0 352.984 32.0968 385.081 71.6902 385.081H313.391C352.984 385.081 385.081 352.984 385.081 313.391V71.6902C385.081 32.0968 352.984 0 313.391 0Z" fill="url(#paint0_linear_402_2)"/>
<path d="M230.542 182.72L289.607 267.119C291.044 269.204 289.579 272.051 287.043 272.051H251.846C250.831 272.051 249.873 271.543 249.281 270.726L206.138 209.124L186.609 230.316C184.693 232.401 181.17 231.049 181.17 228.202V185.65C181.17 184.861 181.452 184.101 181.987 183.537L245.421 114.721C246.012 114.073 246.858 113.707 247.731 113.707H287.014C289.748 113.707 291.157 116.947 289.325 118.948L230.513 182.72H230.542Z" fill="white"/>
<path d="M145.691 176.943V124.105C145.691 120.216 148.847 117.06 152.736 117.06H179.873C181.592 117.06 183.001 115.651 183.001 113.932V88.9363C183.001 87.2173 181.592 85.8083 179.873 85.8083H130.107C121.484 85.8083 114.467 92.797 114.467 101.448V169.898C114.467 173.787 111.311 176.943 107.422 176.943H98.0666C96.3476 176.943 94.9386 178.352 94.9386 180.071V205.01C94.9386 206.729 96.3476 208.138 98.0666 208.138H107.422C111.311 208.138 114.467 211.294 114.467 215.183V283.633C114.467 292.256 121.456 299.273 130.107 299.273H179.873C181.592 299.273 183.001 297.864 183.001 296.145V271.149C183.001 269.43 181.592 268.021 179.873 268.021H152.736C148.847 268.021 145.691 264.865 145.691 260.976V208.138C145.691 199.515 138.702 192.555 130.107 192.555C138.73 192.555 145.691 185.566 145.691 176.971V176.943Z" fill="white"/>
<defs>
<linearGradient id="paint0_linear_402_2" x1="339.035" y1="46.0463" x2="66.7587" y2="318.351" gradientUnits="userSpaceOnUse">
<stop stop-color="#9E76FF"/>
<stop offset="1" stop-color="#0E01A7"/>
</linearGradient>
</defs>
</svg>
